# xmcd
#
# Track frame offsets:
#	150
#	23788
#	34247
#	77975
#	101641
#	129431
#	149363
#	155336
#	165433
#
# Disc length: 2483 seconds
#
# Revision: 0
# Processed by: cddbd v1.5.1PL2 Copyright (c) Steve Scherf et al.
# Submitted via: audiograbber 1.83.01
#
DISCID=6d09b109
DTITLE=Bela Fleck - The Bluegrass Sessions - Tales From The Acoustic Planet Vol
DTITLE=2 
DYEAR=1900
DGENRE=Bluegrass
TTITLE0=Valley Of The Rogue
TTITLE1=Plunky's Lament
TTITLE2=Maura On A Bicycle, Stout And Molasses, Way Back When
TTITLE3=Dark Circles
TTITLE4=Old Jellico, Puddle Jumper, Dead Man's Hill
TTITLE5=Katmandu
TTITLE6=Do You Have Room
TTITLE7=Foggy Mountain Special
TTITLE8=Major Honker
EXTD=
EXTT0=
EXTT1=
EXTT2=
EXTT3=
EXTT4=
EXTT5=
EXTT6=
EXTT7=
EXTT8=
PLAYORDER=
